<?xml version="1.0" standalone="no"?>
<!DOCTYPE svg PUBLIC "-//W3C//DTD SVG 20010904//EN"
 "http://www.w3.org/TR/2001/REC-SVG-20010904/DTD/svg10.dtd">
<svg version="1.0" xmlns="http://www.w3.org/2000/svg"
 width="144.000000pt" height="144.000000pt" viewBox="0 0 144.000000 144.000000"
 preserveAspectRatio="xMidYMid meet">
<metadata>
Created by potrace 1.14, written by Peter Selinger 2001-2017
</metadata>
<g transform="translate(0.000000,144.000000) scale(0.100000,-0.100000)"
fill="#000000" stroke="none">
<path d="M648 1315 c-40 -18 -116 -51 -169 -74 -107 -46 -123 -57 -186 -119
-66 -66 -108 -165 -84 -202 13 -19 63 -2 67 22 10 73 52 128 139 183 54 34
204 99 211 92 3 -3 -4 -40 -15 -83 -20 -79 -48 -224 -56 -299 -26 -219 -36
-457 -21 -505 30 -93 117 -75 131 27 3 26 19 120 36 208 28 156 34 187 44 223
2 9 9 33 14 52 52 198 112 349 152 382 45 38 75 -17 72 -130 -2 -60 -34 -137
-81 -195 -28 -35 -33 -67 -11 -67 4 0 26 -18 47 -39 28 -28 44 -57 55 -98 26
-91 24 -97 -35 -131 -126 -71 -200 -149 -238 -250 -38 -101 -25 -180 35 -212
36 -20 116 -15 163 9 46 23 132 108 132 129 0 18 51 126 62 130 4 2 4 10 1 18
-3 8 -1 14 3 14 5 0 10 10 10 23 6 90 18 157 30 158 8 1 19 3 24 4 6 1 19 3
30 4 14 1 20 8 20 27 0 23 -3 25 -32 19 -58 -10 -63 -10 -65 -5 0 3 -12 31
-26 62 -14 31 -22 60 -19 64 4 4 1 4 -5 0 -9 -5 -13 0 -13 14 0 12 -4 19 -9
15 -5 -3 -13 5 -16 17 -4 13 -16 33 -27 45 l-21 22 32 32 c87 86 114 255 59
365 -68 136 -202 98 -293 -82 -44 -88 -41 -80 -54 -149 -5 -27 -12 -57 -15
-65 -3 -8 -10 -34 -16 -57 -13 -52 -28 -56 -26 -8 0 19 3 35 7 35 3 0 5 10 6
23 1 31 10 74 20 89 7 13 10 22 17 63 2 11 6 27 9 35 13 32 36 136 34 150 -8
50 -41 54 -129 15z m357 -842 c-25 -138 -46 -193 -89 -239 -49 -51 -86 -63
-121 -40 -68 45 10 186 153 277 57 36 64 36 57 2z"/>
</g>
</svg>
