<?xml version="1.0" standalone="no"?>
<!DOCTYPE svg PUBLIC "-//W3C//DTD SVG 20010904//EN"
 "http://www.w3.org/TR/2001/REC-SVG-20010904/DTD/svg10.dtd">
<svg version="1.0" xmlns="http://www.w3.org/2000/svg"
 width="397.000000pt" height="397.000000pt" viewBox="0 0 397.000000 397.000000"
 preserveAspectRatio="xMidYMid meet">
<metadata>
Created by potrace 1.14, written by Peter Selinger 2001-2017
</metadata>
<g transform="translate(0.000000,397.000000) scale(0.100000,-0.100000)"
fill="#000000" stroke="none">
<path d="M645 2573 c-182 -37 -338 -156 -414 -316 -47 -99 -61 -161 -61 -272
0 -237 120 -437 321 -534 46 -22 95 -42 109 -45 14 -2 49 -9 79 -15 188 -38
415 21 546 141 l58 52 -89 82 -88 81 -38 -37 c-22 -21 -65 -50 -96 -66 -52
-27 -66 -29 -162 -29 -94 1 -111 3 -161 28 -75 36 -136 98 -173 177 -28 60
-31 73 -30 165 0 81 4 109 23 150 33 74 66 118 117 155 74 53 133 69 238 67
78 -2 99 -7 149 -32 33 -16 76 -46 96 -66 l38 -36 39 35 c21 19 61 56 88 81
l49 45 -59 54 c-140 127 -364 179 -579 135z"/>
<path d="M1835 2569 c-289 -72 -467 -295 -466 -583 1 -345 249 -591 606 -602
168 -5 312 29 441 103 l62 36 -1 238 c0 212 -2 239 -16 240 -55 3 -199 4 -213
1 -16 -4 -18 -21 -18 -174 l0 -169 -47 -22 c-40 -18 -66 -22 -158 -22 -103 0
-114 2 -175 31 -83 41 -135 92 -174 174 -28 59 -31 74 -31 165 0 91 3 106 31
166 62 130 180 204 332 208 117 3 211 -31 292 -105 l26 -23 36 32 c94 84 128
118 128 129 0 23 -86 89 -165 128 -44 21 -111 45 -150 53 -95 20 -253 18 -340
-4z"/>
<path d="M2720 1985 l0 -585 135 0 134 0 0 268 c0 147 0 305 0 352 l1 85 23
-27 c12 -14 141 -173 287 -352 l265 -325 113 -1 112 0 0 585 0 586 -132 -3
-133 -3 -1 -343 c-1 -188 -3 -345 -6 -347 -3 -3 -27 23 -54 57 -27 35 -81 101
-120 148 -38 47 -132 162 -208 255 -76 94 -151 185 -166 203 l-28 32 -111 0
-111 0 0 -585z"/>
<path d="M705 2257 c-64 -27 -125 -84 -156 -144 -20 -40 -24 -62 -23 -128 0
-97 25 -154 89 -214 63 -58 106 -74 200 -75 95 -1 154 22 216 87 42 44 47 57
25 57 -8 0 -16 3 -18 8 -1 4 -19 15 -38 26 -98 52 -166 90 -174 97 -4 4 25 29
65 56 41 26 76 51 77 56 2 4 10 7 18 7 8 0 14 5 14 10 0 6 6 10 13 10 8 0 22
9 32 20 17 19 17 21 -1 42 -60 70 -125 101 -219 104 -54 2 -82 -2 -120 -19z"/>
</g>
</svg>
